HIERARCHY
ROOT Hips
{
	OFFSET 0.000000 0.000000 0.000000
	CHANNELS 6 Xposition Yposition Zposition Xrotation Yrotation Zrotation
	JOINT LeftUpLeg_virtual
	{
		OFFSET 0.000000 0.000000 0.000000
		CHANNELS 3 Xrotation Yrotation Zrotation
		JOINT LeftUpLeg
		{
			OFFSET 11.394100 -6.187798 -0.413800
			CHANNELS 3 Xrotation Yrotation Zrotation
			JOINT LeftLeg
			{
				OFFSET 0.430247 -32.302673 3.732800
				CHANNELS 3 Xrotation Yrotation Zrotation
				JOINT LeftFoot
				{
					OFFSET -0.430247 -48.264931 -6.423300
					CHANNELS 3 Xrotation Yrotation Zrotation
					JOINT LeftToeBase
					{
						OFFSET 4.230900 -16.068199 23.438400
						CHANNELS 3 Xrotation Yrotation Zrotation
						JOINT LeftToe_End
						{
							OFFSET 4.510700 0.695400 19.974600
							CHANNELS 3 Xrotation Yrotation Zrotation
							End Site
							{
								OFFSET 0 0 0
							}
						}
					}
				}
			}
		}
	}
	JOINT RightUpLeg_virtual
	{
		OFFSET 0.000000 0.000000 0.000000
		CHANNELS 3 Xrotation Yrotation Zrotation
		JOINT RightUpLeg
		{
			OFFSET -11.333700 -6.187798 -0.413800
			CHANNELS 3 Xrotation Yrotation Zrotation
			JOINT RightLeg
			{
				OFFSET -0.430392 -32.302628 3.733000
				CHANNELS 3 Xrotation Yrotation Zrotation
				JOINT RightFoot
				{
					OFFSET 0.430392 -48.264973 -6.423500
					CHANNELS 3 Xrotation Yrotation Zrotation
					JOINT RightToeBase
					{
						OFFSET -4.230900 -16.068199 23.438400
						CHANNELS 3 Xrotation Yrotation Zrotation
						JOINT RightToe_End
						{
							OFFSET -4.510700 0.695400 19.974600
							CHANNELS 3 Xrotation Yrotation Zrotation
							End Site
							{
								OFFSET 0 0 0
							}
						}
					}
				}
			}
		}
	}
	JOINT Spine_virtual
	{
		OFFSET 0.000000 0.000000 0.000000
		CHANNELS 3 Xrotation Yrotation Zrotation
		JOINT Spine
		{
			OFFSET -0.002400 12.777504 0.315300
			CHANNELS 3 Xrotation Yrotation Zrotation
			JOINT Spine1
			{
				OFFSET -0.002067 5.816869 0.032633
				CHANNELS 3 Xrotation Yrotation Zrotation
				JOINT Spine1_split
				{
					OFFSET -0.002067 5.816869 0.032633
					CHANNELS 3 Xrotation Yrotation Zrotation
					JOINT Spine2
					{
						OFFSET -0.002067 5.816869 0.032633
						CHANNELS 3 Xrotation Yrotation Zrotation
						JOINT Neck_virtual
						{
							OFFSET 0.000000 0.000000 0.000000
							CHANNELS 3 Xrotation Yrotation Zrotation
							JOINT Neck
							{
								OFFSET -0.003700 21.199493 -0.826900
								CHANNELS 3 Xrotation Yrotation Zrotation
								JOINT Head
								{
									OFFSET 0.000000 20.442200 4.834800
									CHANNELS 3 Xrotation Yrotation Zrotation
									JOINT HeadTop_End
									{
										OFFSET 0.000000 34.668396 4.968400
										CHANNELS 3 Xrotation Yrotation Zrotation
										End Site
										{
											OFFSET 0 0 0
										}
									}
								}
							}
						}
						JOINT LeftShoulder_virtual
						{
							OFFSET 0.000000 0.000000 0.000000
							CHANNELS 3 Xrotation Yrotation Zrotation
							JOINT LeftShoulder
							{
								OFFSET 3.288150 8.794197 -1.372250
								CHANNELS 3 Xrotation Yrotation Zrotation
								JOINT LeftShoulder_split
								{
									OFFSET 3.288150 8.794197 -1.372250
									CHANNELS 3 Xrotation Yrotation Zrotation
									JOINT LeftArm
									{
										OFFSET 11.953299 -2.279007 -0.146200
										CHANNELS 3 Xrotation Yrotation Zrotation
										JOINT LeftForeArm
										{
											OFFSET 18.448900 0.000000 0.000000
											CHANNELS 3 Xrotation Yrotation Zrotation
											JOINT LeftHand
											{
												OFFSET 29.527798 0.000000 0.000000
												CHANNELS 3 Xrotation Yrotation Zrotation
												End Site
												{
													OFFSET 0 0 0
												}
											}
										}
									}
								}
							}
						}
						JOINT RightShoulder_virtual
						{
							OFFSET 0.000000 0.000000 0.000000
							CHANNELS 3 Xrotation Yrotation Zrotation
							JOINT RightShoulder
							{
								OFFSET -3.249400 8.794197 -1.372250
								CHANNELS 3 Xrotation Yrotation Zrotation
								JOINT RightShoulder_split
								{
									OFFSET -3.249400 8.794197 -1.372250
									CHANNELS 3 Xrotation Yrotation Zrotation
									JOINT RightArm
									{
										OFFSET -11.953299 -2.279007 -0.146200
										CHANNELS 3 Xrotation Yrotation Zrotation
										JOINT RightForeArm
										{
											OFFSET -18.448900 0.000000 0.000000
											CHANNELS 3 Xrotation Yrotation Zrotation
											JOINT RightHand
											{
												OFFSET -29.527802 0.000000 0.000000
												CHANNELS 3 Xrotation Yrotation Zrotation
												End Site
												{
													OFFSET 0 0 0
												}
											}
										}
									}
								}
							}
						}
					}
				}
			}
		}
	}
}
MOTION
Frames: 5
Frame Time: 0.03333333
-0.674933 96.975731 5.711124 0.000000 0.000000 0.000000 119.802638 -82.575163 116.085731 -11.500889 31.890741 22.392403 23.791676 9.419128 -2.526608 -17.785686 12.538054 -22.031991 2.672939 -6.564795 -5.383274 0.000000 0.000000 0.000000 121.702578 -82.651668 117.630242 -29.586119 -13.872318 -10.046785 24.766283 -13.303523 -0.438609 -2.554548 -8.255423 24.663883 3.722752 2.992129 -13.629939 0.000000 0.000000 0.000000 83.244508 -84.302156 79.440448 8.139798 -1.211015 1.884331 0.587873 -0.306255 2.350294 0.163077 -0.464292 -0.009823 0.000000 0.000000 0.000000 2.400938 2.131007 2.685703 -11.015477 19.375423 18.061149 -2.807302 1.577096 3.088417 0.000000 0.000000 0.000000 1.805307 -0.162313 2.682201 -0.085037 1.153034 -5.234277 -0.364864 -5.333332 -1.602440 -12.945655 -0.360815 -63.363781 19.855281 -20.347700 -0.020767 0.000000 0.000000 0.000000 0.783149 -0.168943 3.372338 -0.541696 0.655769 21.512850 -15.384810 -6.556548 -0.923132 12.653730 30.244201 45.571791 8.622203 33.080078 -2.368657 0.000000 0.000000 0.000000 
-0.184755 96.445694 2.818871 0.000000 0.000000 0.000000 131.524800 -82.205548 128.230996 -9.548164 32.041432 22.972827 25.105566 10.719705 -2.535918 -16.076346 12.753269 -24.182191 -0.994374 -6.704615 -5.790853 0.000000 0.000000 0.000000 131.342844 -82.238128 127.595351 -31.326311 -12.148303 -8.766542 26.438680 -13.472699 -0.693486 -1.407189 -7.995168 25.417507 3.216496 2.695000 -14.265507 0.000000 0.000000 0.000000 100.495018 -84.987689 97.443768 8.329757 -2.167163 1.706646 0.230177 -0.712685 2.658923 0.151689 -0.356511 -0.015680 0.000000 0.000000 0.000000 2.268498 1.818826 2.901239 -10.566276 18.986548 16.425586 -2.108440 3.177979 4.462832 0.000000 0.000000 0.000000 1.586615 -0.457916 2.945884 -0.102895 0.501952 -5.706833 -0.681432 -5.204293 -1.723506 -11.303951 -1.967295 -64.169115 18.326362 -19.335121 -0.594768 0.000000 0.000000 0.000000 0.602039 -0.479528 3.671844 -0.609287 0.666637 21.352128 -14.616151 -6.688757 -0.469160 10.897992 31.329149 46.201667 7.779399 32.382128 -2.560792 0.000000 0.000000 0.000000 
0.266519 95.778793 -0.520386 0.000000 0.000000 0.000000 140.108914 -82.188670 137.018130 -8.199577 30.502068 23.919445 27.202366 11.325141 -2.637628 -13.501622 12.137564 -25.935400 -7.679341 -6.488769 -6.842830 0.000000 0.000000 0.000000 138.772860 -82.124159 135.127083 -32.312699 -10.663347 -6.803124 28.048763 -13.154281 -1.097326 -1.264039 -7.691381 25.524827 3.285401 2.410959 -15.406257 0.000000 0.000000 0.000000 117.462670 -85.332682 114.889902 8.629167 -3.129893 1.649591 -0.147270 -1.161979 2.935471 0.146011 -0.266500 -0.014965 0.000000 0.000000 0.000000 2.125015 1.483000 3.079655 -10.303467 18.833041 14.950502 -1.844360 5.583490 5.601457 0.000000 0.000000 0.000000 1.364752 -0.811570 3.147466 -0.146968 -0.219770 -5.738939 -0.597985 -5.252882 -1.732021 -9.422704 -3.555617 -64.958992 16.589997 -18.738489 -1.402947 0.000000 0.000000 0.000000 0.417782 -0.852031 3.892612 -0.594991 0.779858 21.063511 -13.677250 -6.677493 0.046877 9.148570 32.431886 46.857577 7.092532 31.546943 -2.650161 0.000000 0.000000 0.000000 
0.605582 95.064194 -4.311352 0.000000 0.000000 0.000000 147.591372 -82.470737 144.484251 -7.832268 27.494006 25.161106 29.839444 11.595612 -3.028493 -10.599233 10.823661 -26.692069 -16.408901 -5.710055 -8.719208 0.000000 0.000000 0.000000 144.963402 -82.440800 141.230622 -32.280232 -9.850642 -4.250010 29.464763 -12.726636 -1.666403 -3.208244 -7.826896 23.950888 5.370427 1.919450 -16.928369 0.000000 0.000000 0.000000 133.642951 -85.495677 131.373689 9.032504 -3.951521 1.749723 -0.532467 -1.565665 3.073367 0.109945 -0.262985 0.026257 0.000000 0.000000 0.000000 1.957223 1.188507 3.143368 -10.170121 18.912384 13.848792 -2.139735 8.409089 6.344806 0.000000 0.000000 0.000000 1.130079 -1.146282 3.184384 -0.220966 -0.986423 -5.341305 -0.098788 -5.061165 -1.751511 -7.670405 -4.327526 -65.733003 14.736439 -18.786785 -2.374344 0.000000 0.000000 0.000000 0.230921 -1.194881 3.947916 -0.542203 1.164772 20.762969 -12.603571 -6.325811 0.330272 7.446914 33.346141 47.566230 6.673210 30.749696 -2.679222 0.000000 0.000000 0.000000 
0.773049 94.433731 -8.097313 0.000000 0.000000 0.000000 154.977074 -83.041365 151.751353 -8.242490 23.069985 26.222556 33.523016 11.739272 -3.859899 -7.641161 9.122542 -26.451578 -25.317486 -4.166980 -11.048348 0.000000 0.000000 0.000000 151.350462 -82.996238 147.474193 -31.333612 -9.840880 -1.499527 31.206946 -12.342203 -2.210560 -6.848658 -8.211087 20.271073 9.326531 1.178467 -18.721680 0.000000 0.000000 0.000000 147.492375 -85.585228 145.303450 9.514260 -4.456356 2.006853 -0.905478 -1.857311 3.019194 0.075033 -0.351857 0.034118 0.000000 0.000000 0.000000 1.758720 1.001131 3.069684 -9.993792 19.146755 13.319991 -3.016870 11.313686 6.705152 0.000000 0.000000 0.000000 0.872644 -1.371874 3.013970 -0.321661 -1.854951 -4.774448 0.554030 -4.506952 -1.924068 -6.242075 -3.841814 -66.511016 13.114966 -19.515193 -3.372503 0.000000 0.000000 0.000000 0.042902 -1.419869 3.800745 -0.489184 1.944070 20.484323 -11.255426 -5.649578 0.359767 5.929154 34.061194 48.282307 6.606857 30.084340 -2.692662 0.000000 0.000000 0.000000 
